<svg version="1.1" id="Layer_1" xmlns="http://www.w3.org/2000/svg" xmlns:xlink="http://www.w3.org/1999/xlink" x="0px" y="0px"
	 width="100%" viewBox="0 0 736 736" enable-background="new 0 0 736 736" xml:space="preserve">
<path fill="#000000" opacity="1.000000" stroke="none" 
	d="
M366.000122,191.645142 
	C435.814789,191.645294 505.129486,191.620773 574.444153,191.659653 
	C598.688904,191.673248 615.995850,205.819595 620.802185,229.452515 
	C621.261719,231.711868 621.325684,234.081543 621.326355,236.400070 
	C621.351196,326.875732 621.368469,417.351379 621.332947,507.827026 
	C621.323486,531.959045 601.280884,552.299744 577.203430,552.311707 
	C435.741577,552.382019 294.279663,552.382568 152.817825,552.314026 
	C128.710449,552.302368 108.694603,532.011780 108.682846,507.827057 
	C108.638802,417.184784 108.636009,326.542480 108.684090,235.900269 
	C108.696861,211.816162 128.907166,191.685043 153.057938,191.667526 
	C223.871948,191.616180 294.686035,191.646851 366.000122,191.645142 
M304.442108,365.057892 
	C319.699524,380.431641 334.951050,395.811218 350.216400,411.177063 
	C360.625641,421.654816 369.055054,421.761902 379.358582,411.437897 
	C440.325500,350.349487 501.275604,289.244232 562.206848,228.120239 
	C563.552307,226.770477 565.408508,225.701157 565.714905,222.909592 
	C431.670380,222.909592 297.781921,222.909592 162.560028,222.909592 
	C210.300262,270.739014 257.121704,317.647919 304.442108,365.057892 
M407.499939,521.647278 
	C459.996582,521.647278 512.493225,521.647278 565.383667,521.647278 
	C522.699097,479.390381 480.815857,437.926727 438.932617,396.463104 
	C438.295654,395.520203 437.484222,397.271729 436.207214,398.562714 
	C424.138611,410.763367 411.995605,422.890472 399.864471,435.029175 
	C379.628235,455.278076 350.228821,455.207611 329.931061,434.862427 
	C317.810760,422.713837 305.717712,410.537994 293.561340,398.425629 
	C292.202179,397.071411 291.173248,395.187592 288.602905,394.706360 
	C246.986649,436.495422 205.262726,478.392639 163.538788,520.289856 
	C163.778275,520.742126 164.017761,521.194458 164.257263,521.646729 
	C245.004807,521.646729 325.752350,521.646729 407.499939,521.647278 
M139.348663,403.499908 
	C139.348663,435.209442 139.348663,466.919006 139.348663,497.312469 
	C181.428711,455.557343 223.781128,413.531952 265.707336,371.929504 
	C223.621002,330.203278 181.309341,288.253662 139.349182,246.652527 
	C139.349182,297.933502 139.349182,350.216675 139.348663,403.499908 
M485.118622,349.618347 
	C477.784729,357.007965 470.450806,364.397552 463.286774,371.615967 
	C506.148132,414.137634 548.397583,456.052216 590.326538,497.648895 
	C590.326538,414.089203 590.326538,329.723938 590.326538,245.283371 
	C555.290649,280.030029 520.456787,314.576355 485.118622,349.618347 
z"/>
</svg>